<svg width="24" height="32" viewBox="0 0 24 32" fill="none" xmlns="http://www.w3.org/2000/svg">
<path d="M15.825 0.724998L23.475 8.375H15.825V0.724998ZM13.9125 8.375C13.9125 9.45078 14.7492 10.2875 15.825 10.2875H23.475V28.4563C23.475 30.0699 22.1602 31.325 20.6063 31.325H3.39375C1.78008 31.325 0.525003 30.0699 0.525003 28.4563V3.59375C0.525003 2.03984 1.78008 0.724998 3.39375 0.724998H13.9125V8.375ZM17.7375 18.7742C17.7375 18.3559 17.3191 17.9375 16.9008 17.9375H13.9125V14.9492C13.9125 14.5309 13.4941 14.1125 13.0758 14.1125H10.8645C10.4461 14.1125 10.0875 14.5309 10.0875 14.9492V17.9375H7.03946C6.6211 17.9375 6.2625 18.3559 6.2625 18.7742V20.9855C6.2625 21.4039 6.6211 21.7625 7.03946 21.7625H10.0875V24.8105C10.0875 25.2289 10.4461 25.5875 10.8645 25.5875H13.0758C13.4941 25.5875 13.9125 25.2289 13.9125 24.8105V21.7625H16.9008C17.3191 21.7625 17.7375 21.4039 17.7375 20.9855V18.7742Z" fill="#9DB8FF"/>
</svg>
